# xmcd
#
# Track frame offsets:
#	150
#	19187
#	36390
#	53307
#	66267
#	84207
#	97610
#	113612
#	129950
#	146417
#	162250
#	181287
#	198490
#	215405
#	228367
#	246305
#	259710
#	275712
#	292047
#	308515
#
# Disc length: 4323 seconds
#
# Revision: 3
# Processed by: cddbd v1.5.2PL0 Copyright (c) Steve Scherf et al.
# Submitted via: audiograbber 1.83.01
#
DISCID=0f10e114
DTITLE=Various Artist - THMC0207
DYEAR=1900
DGENRE=Karaoke
TTITLE0=Coffey, Kellie - When You Lie Next To Me (Vocals)
TTITLE1=Diamond Rio - Beautiful Mess (Vocals)
TTITLE2=Shelton, Blake - Ol' Red (Vocals)
TTITLE3=Byrd, Tracy - Ten Rounds With Jose Cuervo (Vocals)
TTITLE4=Nichols, Joe - The Impossible (Vocals)
TTITLE5=Brooks And Dunn - My Heart Is Lost To You (Vocals)
TTITLE6=Worley, Darryl - I Miss My Friend (Vocals)
TTITLE7=Diffie, Joe - This Pretender (Vocals)
TTITLE8=Thomson, Cyndi - I'm Gone (Vocals)
TTITLE9=James, Brett - Chasin' Amy (Vocals)
TTITLE10=Coffey, Kellie - When You Lie Next To Me
TTITLE11=Diamond Rio - Beautiful Mess
TTITLE12=Shelton, Blake - Ol' Red
TTITLE13=Byrd, Tracy - Ten Rounds With Jose Cuervo
TTITLE14=Nichols, Joe - The Impossible
TTITLE15=Brooks And Dunn - My Heart Is Lost To You
TTITLE16=Worley, Darryl - I Miss My Friend
TTITLE17=Diffie, Joe - This Pretender
TTITLE18=Thomson. Cyndi - I'm Gone
TTITLE19=James, Brett - Chasin' Amy
EXTD=
EXTT0=
EXTT1=
EXTT2=
EXTT3=
EXTT4=
EXTT5=
EXTT6=
EXTT7=
EXTT8=
EXTT9=
EXTT10=
EXTT11=
EXTT12=
EXTT13=
EXTT14=
EXTT15=
EXTT16=
EXTT17=
EXTT18=
EXTT19=
PLAYORDER=
